<svg xmlns="http://www.w3.org/2000/svg" width="56.759" height="53.447" viewBox="0 0 56.759 53.447"><defs><style>.a,.b{fill:#1a498b;}.a{fill-rule:evenodd;}.c{fill:none;stroke:#fff;stroke-linecap:round;stroke-linejoin:round;stroke-width:2px;}</style></defs><g transform="translate(-72.5 -3.838)"><g transform="translate(72.5 4.493)"><path class="a" d="M115.432,57.15a19.889,19.889,0,0,1-5.839-.946C96.753,52.482,87.135,44.5,79.35,33.91,76.4,29.88,73.737,25.8,72.791,20.846A15.673,15.673,0,0,1,77.9,5.778C79.3,4.473,83.577,3.918,85.3,4.752a2.757,2.757,0,0,1,1.334,1.5c1.611,3.809,3.2,7.646,4.783,11.454a2.627,2.627,0,0,1-.169,2.224,18.885,18.885,0,0,1-3.475,4.643A2.265,2.265,0,0,0,87.5,27.74a38.475,38.475,0,0,0,18.982,16.319,2.275,2.275,0,0,0,3-.67c1.39-1.693,2.835-3.389,4.113-5.14a2.3,2.3,0,0,1,3.143-.808c2.752,1.2,5.42,2.5,8.144,3.808.612.279,1.194.53,1.807.808,2.752,1.418,2.7,1.418,2.473,4.475C128.72,52.4,124.27,55.4,118.99,56.788A11.722,11.722,0,0,1,115.432,57.15Z" transform="translate(-72.5 -4.357)"/></g><g transform="translate(94.442 3.838)"><path class="b" d="M.913,0H20.78a.913.913,0,0,1,.913.913v13.75a.913.913,0,0,1-.913.913H0a0,0,0,0,1,0,0V.913A.913.913,0,0,1,.913,0Z"/><path class="b" d="M89.9,18.82V15.954H93.2Z" transform="translate(-89.896 -0.672)"/><g transform="translate(4.261 3.882)"><line class="c" x2="13.335"/><line class="c" x2="9.552" transform="translate(0 3.784)"/><line class="c" x2="5.768" transform="translate(0 7.568)"/></g></g></g></svg>