<svg xmlns="http://www.w3.org/2000/svg" width="35" height="35" viewBox="0 0 35 35"><defs><style>.a,.b{fill:#1a498b;}.a{fill-rule:evenodd;}</style></defs><g transform="translate(4897 -3494)"><g transform="translate(-4888.212 3504.192)"><path class="a" d="M85.318,20.12a5.938,5.938,0,0,1-1.743-.282,16.949,16.949,0,0,1-9.03-6.656,9.789,9.789,0,0,1-1.958-3.9,4.68,4.68,0,0,1,1.527-4.5,2.684,2.684,0,0,1,2.208-.307.823.823,0,0,1,.4.448c.481,1.137.955,2.283,1.428,3.42a.784.784,0,0,1-.05.664,5.639,5.639,0,0,1-1.038,1.386.676.676,0,0,0-.082.946,11.488,11.488,0,0,0,5.668,4.872.679.679,0,0,0,.9-.2c.415-.505.847-1.012,1.228-1.535a.687.687,0,0,1,.938-.241c.822.357,1.618.747,2.432,1.137.183.083.357.158.54.241.822.423.8.423.739,1.336-.133,1.751-1.461,2.648-3.038,3.062A3.5,3.5,0,0,1,85.318,20.12Z" transform="translate(-72.5 -4.357)"/></g><path class="b" d="M305.562,55.487h2.124c.081.018.161.04.242.053.873.133,1.757.218,2.619.407a16.987,16.987,0,0,1,7.687,3.951,17.489,17.489,0,0,1,5.723,10.759q.082.634.167,1.268v2.125c-.019.109-.047.217-.056.327a17.452,17.452,0,0,1-7.276,12.845,17.108,17.108,0,0,1-7.836,3.1l-1.27.168h-2.124c-.1-.019-.2-.046-.3-.055a17.451,17.451,0,0,1-12.856-7.254,17.122,17.122,0,0,1-3.118-7.887c-.053-.414-.109-.828-.164-1.242V71.924c.018-.081.04-.161.053-.243.134-.873.226-1.755.408-2.618a16.391,16.391,0,0,1,2.362-5.6,17.4,17.4,0,0,1,5.39-5.3,17.144,17.144,0,0,1,6.956-2.509Zm1.069,32.152a14.654,14.654,0,1,0-14.66-14.669A14.688,14.688,0,0,0,306.63,87.639Z" transform="translate(-5186.124 3438.513)"/></g></svg>