<svg xmlns="http://www.w3.org/2000/svg" width="25.342" height="25.342" viewBox="0 0 25.342 25.342"><defs><style>.a{fill:#e1492f;}</style></defs><g transform="translate(-289.124 -55.487)"><path class="a" d="M301.026,55.487h1.538c.059.013.117.029.175.038.632.1,1.272.158,1.9.294A12.3,12.3,0,0,1,310.2,58.68a12.662,12.662,0,0,1,4.144,7.79q.06.459.121.918v1.538c-.014.079-.034.157-.041.237a12.636,12.636,0,0,1-5.268,9.3,12.388,12.388,0,0,1-5.674,2.243l-.919.121h-1.538c-.072-.013-.144-.033-.217-.04a12.635,12.635,0,0,1-9.309-5.253,12.4,12.4,0,0,1-2.258-5.71c-.038-.3-.079-.6-.119-.9V67.389c.013-.058.029-.117.038-.176.1-.632.163-1.271.3-1.9a11.869,11.869,0,0,1,1.71-4.056,12.6,12.6,0,0,1,3.9-3.837,12.413,12.413,0,0,1,5.037-1.816Zm.774,23.281a10.611,10.611,0,1,0-10.615-10.621A10.635,10.635,0,0,0,301.8,78.768Z" transform="translate(0)"/><path class="a" d="M313.918,84.985h1.145v1.951c-.071.005-.13.013-.188.013q-2.864,0-5.727,0c-.148,0-.2-.039-.2-.193q.012-.8,0-1.6c0-.144.048-.186.187-.184.344.008.688,0,1.032,0,.132,0,.193-.028.193-.178q-.006-3.542,0-7.084c0-.039-.007-.078-.014-.139h-1.3V75.512h4.877Z" transform="translate(-10.351 -10.455)"/><path class="a" d="M313.579,65.122a1.763,1.763,0,0,1,.672,3.433,2.07,2.07,0,0,1-1.629-.112,1.734,1.734,0,0,1-.867-1.971A1.755,1.755,0,0,1,313.579,65.122Z" transform="translate(-11.789 -5.03)"/></g></svg>