<svg xmlns="http://www.w3.org/2000/svg" width="173.664" height="119.945" viewBox="0 0 173.664 119.945"><defs><style>.a{fill:#fff;}</style></defs><g transform="translate(-68.076 -41.68)"><g transform="translate(68.076 41.68)"><g transform="translate(0 0)"><path class="a" d="M71.03,395.559a2.087,2.087,0,0,0-1.139,1.83c-.129.81.052,1.448.714,1.553.772.123,1.117-.505,1.412-1.529.557-1.96,1.48-3.142,3.428-2.832,1.691.269,2.613,1.579,2.243,3.9a4.043,4.043,0,0,1-2.1,3.375l-.834-1.628c.635-.323,1.016-.817,1.2-2,.158-.99-.118-1.624-.762-1.727-.753-.12-1.048.313-1.456,1.688-.493,1.675-1.457,3-3.387,2.691-1.636-.26-2.552-1.606-2.2-3.8a3.616,3.616,0,0,1,2.058-3.105Z" transform="translate(-68.076 -323.147)"/><path class="a" d="M81.837,350.768l.539-1.893-.752-.214c-1.128-.321-1.552.013-1.927,1.327-.27.946-.3,1.45.281,2.07l-1.351,1.075c-.876-.932-1.036-2-.542-3.736.639-2.244,1.7-3.249,4.08-2.571l6.014,1.713-.524,1.84-.823-.234a2.105,2.105,0,0,1,.405,2.314c-.549,1.928-1.891,2.834-3.681,2.325C81.642,354.237,81.3,352.643,81.837,350.768Zm2.007-1.475-.5,1.753c-.315,1.1-.051,1.672.737,1.9.823.235,1.333-.265,1.588-1.159.325-1.139.161-1.925-1.4-2.368Z" transform="translate(-75.853 -285.314)"/><path class="a" d="M92.263,290.139l7.181,6.9-.725,1.712-9.983-.291.839-1.98,7.042.41-5.2-4.757Z" transform="translate(-84.583 -240.19)"/><path class="a" d="M97.223,262.923l1.017-1.874,1.783.968-1.017,1.874Zm3.151,1.607.93-1.714,8.178,4.439-.93,1.714Z" transform="translate(-91.364 -216.948)"/><path class="a" d="M126.485,233.544l1.074-1.584.693.47a2.545,2.545,0,0,1,.437-2.434c1.054-1.554,2.663-2.2,4.881-.7l4.821,3.269-1.084,1.6-4.636-3.144c-1.355-.919-2.15-.577-2.712.253a1.84,1.84,0,0,0,.671,2.723l4.651,3.154-1.095,1.614Z" transform="translate(-114.743 -190.9)"/><path class="a" d="M166.3,182.76l1.281-1.446,6.826,6.047c2.145,1.9,1.806,3.743.235,5.516a3.471,3.471,0,0,1-3.46,1.464l.154-1.69a2.083,2.083,0,0,0,2-.856c.967-1.091.916-1.988-.212-2.988l-.32-.284a2.868,2.868,0,0,1-.865,2.155c-1.607,1.814-3.728,1.542-5.553-.074l-.947-.839c-2.006-1.777-2.178-3.828-.715-5.479a2.855,2.855,0,0,1,2.063-1.094Zm3.873,3.431-.808-.716c-1.2-1.061-2.318-1.2-3.176-.232s-.611,2.064.6,3.138l.808.716c1.086.963,2.3,1.306,3.229.256C171.8,188.261,171.26,187.153,170.173,186.191Z" transform="translate(-144.525 -153.243)"/><path class="a" d="M205.235,131.99l1.518-1.224,5.934,7.36c.631.782,1.17,1.161,2.106.405l1.1,1.362c-1.844,1.487-3.087,1.485-4.43-.182Z" transform="translate(-177.661 -112.857)"/><path class="a" d="M231.756,111.555l1.75-1.218L234.665,112l-1.75,1.218Zm2.1,2.85,1.6-1.114,5.318,7.637-1.6,1.114Z" transform="translate(-198.851 -96.535)"/><path class="a" d="M268.995,95.114l1.462,9.853-1.62.911-7.721-6.335,1.875-1.054,5.321,4.631L267.1,96.176Z" transform="translate(-222.307 -84.372)"/><path class="a" d="M323.56,87.716c-.158,1.292-.932,2.094-2.416,2.7-2.41.991-4.35-.083-5.291-2.372l-.481-1.17c-1.04-2.53-.372-4.354,1.837-5.262,2.309-.949,3.985.012,5.033,2.559l.389.947-5.04,2.072.014.034c.552,1.342,1.489,2.185,2.821,1.637a1.877,1.877,0,0,0,1.39-1.557Zm-6.533-1.942,3.219-1.324c-.584-1.229-1.351-1.658-2.38-1.235C316.822,83.645,316.63,84.569,317.027,85.774Z" transform="translate(-265.274 -73.299)"/><path class="a" d="M366.1,67.7a2.088,2.088,0,0,0-2.138-.276c-.79.219-1.3.649-1.116,1.294.209.753.923.806,1.977.649,2.014-.307,3.473.042,4,1.942.458,1.65-.351,3.033-2.617,3.661a4.043,4.043,0,0,1-3.943-.51l1.134-1.434a2.306,2.306,0,0,0,2.324.264c.966-.268,1.429-.782,1.255-1.41-.2-.735-.72-.824-2.14-.623-1.728.247-3.332-.081-3.855-1.964-.442-1.6.4-2.988,2.544-3.582a3.616,3.616,0,0,1,3.68.583Z" transform="translate(-302.009 -60.692)"/><path class="a" d="M438.233,56.55l1.961-.165-.066-.779c-.1-1.168-.561-1.447-1.923-1.332-.981.083-1.462.235-1.836,1l-1.483-.883c.561-1.149,1.5-1.677,3.3-1.828,2.325-.2,3.64.44,3.848,2.907l.526,6.23-1.907.161L440.584,61a2.106,2.106,0,0,1-2.021,1.2c-2,.168-3.32-.766-3.477-2.62C434.92,57.6,436.29,56.714,438.233,56.55Zm2.09,1.355-1.816.153c-1.144.1-1.582.544-1.513,1.36.072.853.719,1.153,1.645,1.075,1.18-.1,1.857-.53,1.721-2.143Z" transform="translate(-361.145 -50.344)"/><path class="a" d="M482.464,43.707l1.166.02.035-2.047,1.932.033-.035,2.047,1.932.033-.029,1.712-1.932-.033-.072,4.261c-.018,1.079.138,1.547,1.158,1.564l.747.013-.031,1.786-.893-.015c-2.187-.037-2.957-.813-2.92-3.009l.079-4.633-1.166-.02Z" transform="translate(-399.135 -41.68)"/><path class="a" d="M545.25,48.407l1.15.194.34-2.019,1.905.321-.34,2.019,1.905.321-.285,1.688-1.905-.321-.708,4.2c-.179,1.064-.095,1.55.912,1.72l.737.124-.3,1.762-.881-.148c-2.156-.363-2.8-1.246-2.438-3.411l.77-4.569-1.15-.194Z" transform="translate(-449.095 -45.597)"/><path class="a" d="M576.642,45.8l1.877.529L577.343,50.5a2.461,2.461,0,0,1,2.4-.328c1.807.509,2.93,1.831,2.2,4.411l-1.58,5.606-1.86-.524,1.52-5.391c.445-1.576-.131-2.222-1.1-2.494a1.841,1.841,0,0,0-2.373,1.5l-1.525,5.409-1.877-.529Z" transform="translate(-471.619 -44.973)"/><path class="a" d="M630.386,91.877c-1.031.8-2.145.808-3.621.182-2.4-1.018-3-3.153-2.031-5.431l.495-1.165c1.069-2.518,2.837-3.325,5.034-2.392,2.3.975,2.793,2.843,1.717,5.379l-.4.942-5.016-2.129-.014.034c-.567,1.336-.507,2.595.818,3.157a1.877,1.877,0,0,0,2.084-.106Zm-3.21-6.012,3.2,1.36c.464-1.279.229-2.127-.794-2.561C628.546,84.222,627.755,84.735,627.176,85.865Z" transform="translate(-512.474 -74.449)"/><path class="a" d="M695.13,99.037l1.646,1.046L691.7,108.06c-.539.848-.725,1.48.29,2.125l-.939,1.476c-2-1.271-2.4-2.449-1.247-4.255Z" transform="translate(-564.308 -87.506)"/><path class="a" d="M716.087,139.192l1.55,1.213.482-.616c.723-.923.573-1.442-.5-2.285-.775-.607-1.232-.822-2.023-.52l-.486-1.656c1.193-.46,2.244-.206,3.665.906,1.837,1.438,2.369,2.8.843,4.749l-3.854,4.925-1.507-1.18.527-.674a2.106,2.106,0,0,1-2.3-.5c-1.579-1.236-1.912-2.821-.765-4.286C712.947,137.7,714.552,137.99,716.087,139.192Zm.61,2.415-1.435-1.123c-.9-.708-1.53-.677-2.034-.032-.527.674-.258,1.335.474,1.908.933.73,1.722.875,2.72-.4Z" transform="translate(-581.781 -116.328)"/><path class="a" d="M754.39,172.576a2.088,2.088,0,0,0-.819-1.994c-.582-.578-1.205-.8-1.677-.329-.551.554-.244,1.2.414,2.039,1.264,1.6,1.684,3.037.293,4.437-1.207,1.214-2.809,1.2-4.476-.46a4.042,4.042,0,0,1-1.509-3.678l1.808.275a2.3,2.3,0,0,0,.922,2.149c.711.707,1.387.854,1.846.392.538-.541.359-1.034-.518-2.168-1.071-1.379-1.58-2.935-.2-4.32,1.168-1.175,2.8-1.132,4.372.436a3.615,3.615,0,0,1,1.315,3.485Z" transform="translate(-610.169 -142.685)"/><path class="a" d="M785.777,194.914l.741.9,1.58-1.3L789.327,196l-1.58,1.3,1.228,1.491-1.322,1.088-1.228-1.491-3.29,2.709c-.833.686-1.088,1.108-.439,1.9l.475.577-1.379,1.136-.568-.689c-1.39-1.688-1.3-2.778.4-4.174L785.2,196.9l-.741-.9Z" transform="translate(-637.085 -163.788)"/><path class="a" d="M817.026,251.611l.89,1.694-.741.39a2.41,2.41,0,0,1,1.882,1.42,2.914,2.914,0,0,1,.027,2.93,3.186,3.186,0,0,1,2.424,1.732c.916,1.742.38,3.362-1.761,4.488l-5.156,2.711-.908-1.726,4.958-2.606c1.351-.71,1.573-1.527,1.107-2.414a1.778,1.778,0,0,0-2.552-.574l-5.057,2.659-.9-1.71L816.2,258c1.4-.736,1.548-1.576,1.115-2.4a1.805,1.805,0,0,0-2.642-.547l-4.975,2.615-.908-1.726Z" transform="translate(-659.881 -209.408)"/><path class="a" d="M850.232,319.69l.675,1.83-8.73,3.22-.675-1.83Zm3.286-1.309.738,2-1.9.7-.738-2Z" transform="translate(-686.016 -262.754)"/><path class="a" d="M864.316,345.684l.543,1.873-9.08,2.632c-.965.28-1.522.631-1.187,1.786l-1.68.487c-.66-2.276-.178-3.421,1.877-4.016Z" transform="translate(-694.911 -284.569)"/><path class="a" d="M861.2,390.75c-1.233-.42-1.859-1.341-2.152-2.918-.476-2.562.972-4.24,3.406-4.693l1.244-.231c2.69-.5,4.339.528,4.775,2.875.456,2.455-.827,3.9-3.536,4.4l-1.006.187-1-5.357-.037.007c-1.427.265-2.443,1.01-2.18,2.426a1.877,1.877,0,0,0,1.24,1.679Zm3.239-6,.636,3.422c1.322-.32,1.9-.983,1.7-2.076C866.566,384.989,865.7,384.612,864.44,384.754Z" transform="translate(-699.964 -314.21)"/></g><g transform="translate(0.113 93.429)"><path class="a" d="M74.284,507.5H68.637v26.084H73.96a7.119,7.119,0,0,0,5.172-1.771c1.2-1.176,1.81-3.014,1.81-5.464V514.333a7.076,7.076,0,0,0-1.7-5.044A6.545,6.545,0,0,0,74.284,507.5Zm-1.566,3.865h1.494a2.45,2.45,0,0,1,2.074.748,3.716,3.716,0,0,1,.574,2.225V526.7a3.588,3.588,0,0,1-.6,2.306,2.557,2.557,0,0,1-2.046.7H72.718Z" transform="translate(-68.637 -507.279)"/><path class="a" d="M157.155,520.784l-4.618-13.289h-3.879v26.084h4.081V518.8l3.332,10.2H158.2l3.369-10.207v14.787h4.081V507.495h-3.915Z" transform="translate(-132.571 -507.279)"/><path class="a" d="M257.7,506.941a6.339,6.339,0,0,0-2.589-.522,6.668,6.668,0,0,0-2.882.579,5.675,5.675,0,0,0-2,1.549A6.463,6.463,0,0,0,249,510.853a9.57,9.57,0,0,0-.405,2.8,9.107,9.107,0,0,0,.833,4.113,6.048,6.048,0,0,0,3.3,2.674l2.631,1.081a8.5,8.5,0,0,1,1.074.528,1.841,1.841,0,0,1,.6.574,2.685,2.685,0,0,1,.265.972,15.427,15.427,0,0,1,.071,1.637c0,.569-.018,1.092-.053,1.553a2.666,2.666,0,0,1-.317,1.124,1.733,1.733,0,0,1-.73.7,3.053,3.053,0,0,1-1.368.248,2.141,2.141,0,0,1-1.84-.729,2.819,2.819,0,0,1-.556-1.7v-1.355h-4.081v1.572a6.088,6.088,0,0,0,.5,2.48,6.541,6.541,0,0,0,1.358,1.991,6.131,6.131,0,0,0,2.05,1.343,6.786,6.786,0,0,0,2.564.484,7.235,7.235,0,0,0,3.079-.6,5.411,5.411,0,0,0,2.06-1.649,6.567,6.567,0,0,0,1.08-2.437,13.474,13.474,0,0,0,.33-3.058,19.826,19.826,0,0,0-.146-2.533,7.08,7.08,0,0,0-.562-2.033,4.985,4.985,0,0,0-1.24-1.522,7.217,7.217,0,0,0-2.038-1.133l-2.813-1.118a5.592,5.592,0,0,1-1.1-.556,1.811,1.811,0,0,1-.569-.617,2.209,2.209,0,0,1-.247-.827,12.1,12.1,0,0,1-.053-1.241,6.781,6.781,0,0,1,.1-1.208,2.855,2.855,0,0,1,.366-.989,2.23,2.23,0,0,1,.7-.662,2.129,2.129,0,0,1,1.121-.259,2,2,0,0,1,1.833.828,3.748,3.748,0,0,1,.563,2.073v1.031h4.081v-2a5.8,5.8,0,0,0-1.718-4.11A6.714,6.714,0,0,0,257.7,506.941Z" transform="translate(-212.275 -506.419)"/><path class="a" d="M373.62,518.5h-4.143v-11H365.4v26.084h4.081V522.145h4.143v11.434H377.7V507.495H373.62Z" transform="translate(-305.737 -507.279)"/><rect class="a" width="4.081" height="26.084" transform="translate(75.854 0.216)"/><path class="a" d="M494.1,520.784l-4.618-13.289h-3.879v26.084h4.081V518.8l3.332,10.2h2.131l3.369-10.207v14.788H502.6V507.495h-3.915Z" transform="translate(-401.782 -507.279)"/><path class="a" d="M589.665,507.5h-3.388l-5.77,25.839-.055.245h4.1l1.082-5.519h4.683l1.082,5.519h4.1l-5.79-25.927Zm-.116,16.7h-3.192l1.6-8.235Z" transform="translate(-477.559 -507.279)"/><path class="a" d="M669.649,507.495h-4.081v26.084h11.367V529.5h-7.286Z" transform="translate(-545.564 -507.279)"/><path class="a" d="M736.252,507.5h-3.388l-5.77,25.839-.055.245h4.1l1.082-5.519H736.9l1.082,5.519h4.1l-5.79-25.927Zm-.116,16.7h-3.192l1.6-8.235Z" transform="translate(-594.677 -507.279)"/><path class="a" d="M803.829,507.495l-2.843,9.811-2.8-9.666-.042-.145h-4.328l5.13,15.059v11.025h4.081V522.554l5.13-15.059Z" transform="translate(-648.029 -507.279)"/><path class="a" d="M866.368,507.652l-.035-.157h-3.388l-5.77,25.839-.055.245h4.1l1.082-5.519h4.683l1.082,5.519h4.1Zm-.151,16.543h-3.192l1.6-8.235Z" transform="translate(-698.607 -507.279)"/></g><g transform="translate(0.338 35.825)"><path class="a" d="M430.373,265.844a3.611,3.611,0,0,0-2.185.736L397.464,226a3.631,3.631,0,1,0-5.681-.491l-20.505,27.085,2.4,3.161,20.762-27.424,23.061,30.46L407.571,271.9h20.1a3.631,3.631,0,1,0,2.7-6.058Zm-15.12,2.238,4.641-6.13,4.641,6.13Z" transform="translate(-310.662 -219.881)"/><path class="a" d="M137.866,318.691a3.616,3.616,0,0,0-2.286.811L114.6,291.784a3.632,3.632,0,1,0-5.88,0L88.472,318.523a3.988,3.988,0,0,0-4.973,2.405H69.76v3.82H84.07a3.988,3.988,0,0,0,7.044-3.387l20.542-27.133,13.6,17.968-9.5,12.552h19.411a3.631,3.631,0,1,0,2.7-6.058Zm-14.427,2.238,4.215-5.568,4.215,5.568Z" transform="translate(-69.76 -272.728)"/><path class="a" d="M681.44,321.567H667.071a3.621,3.621,0,0,0-4.149-2.148l-20.438-27a3.633,3.633,0,1,0-6,.153L626.7,305.5l2.4,3.161,10.442-13.793,20.64,27.263a3.627,3.627,0,0,0,6.231,3.257H681.44Z" transform="translate(-514.739 -273.366)"/></g></g></g></svg>